<?xml version="1.0" encoding="UTF-8" standalone="no"?>
<svg
   xmlns:dc="http://purl.org/dc/elements/1.1/"
   xmlns:cc="http://creativecommons.org/ns#"
   xmlns:rdf="http://www.w3.org/1999/02/22-rdf-syntax-ns#"
   xmlns:svg="http://www.w3.org/2000/svg"
   xmlns="http://www.w3.org/2000/svg"
   xmlns:xlink="http://www.w3.org/1999/xlink"
   xmlns:sodipodi="http://sodipodi.sourceforge.net/DTD/sodipodi-0.dtd"
   xmlns:inkscape="http://www.inkscape.org/namespaces/inkscape"
   version="1.1"
   id="Calque_1"
   x="0px"
   y="0px"
   height="184"
   xml:space="preserve"
   width="184"
   sodipodi:docname="active.svg"
   inkscape:version="0.92.4 (5da689c313, 2019-01-14)"><metadata
   id="metadata3947"><rdf:RDF><cc:Work
       rdf:about=""><dc:format>image/svg+xml</dc:format><dc:type
         rdf:resource="http://purl.org/dc/dcmitype/StillImage" /><dc:title></dc:title></cc:Work></rdf:RDF></metadata><defs
   id="defs3945"><linearGradient
     id="linearGradient8715"
     inkscape:collect="always"><stop
       id="stop8711"
       offset="0"
       style="stop-color:#1c7811;stop-opacity:1" /><stop
       id="stop8713"
       offset="1"
       style="stop-color:#08c70c;stop-opacity:1" /></linearGradient><linearGradient
     inkscape:collect="always"
     id="linearGradient4664"><stop
       style="stop-color:#cd0000;stop-opacity:1"
       offset="0"
       id="stop4660" /><stop
       style="stop-color:#ff7c3c;stop-opacity:1"
       offset="1"
       id="stop4662" /></linearGradient><linearGradient
     inkscape:collect="always"
     xlink:href="#linearGradient4664"
     id="linearGradient4666"
     x1="140.04111"
     y1="174.03551"
     x2="140.04111"
     y2="107.3105"
     gradientUnits="userSpaceOnUse" /><linearGradient
     inkscape:collect="always"
     xlink:href="#linearGradient4664"
     id="linearGradient4677"
     gradientUnits="userSpaceOnUse"
     x1="140.04111"
     y1="174.03551"
     x2="140.04111"
     y2="107.3105"
     gradientTransform="matrix(1.2254252,0,0,1.2254252,-39.089652,-38.883997)" /><linearGradient
     inkscape:collect="always"
     xlink:href="#linearGradient8715"
     id="linearGradient8690"
     x1="135.284"
     y1="170.71075"
     x2="135.39679"
     y2="99.289246"
     gradientUnits="userSpaceOnUse" /></defs><sodipodi:namedview
   pagecolor="#ffffff"
   bordercolor="#666666"
   borderopacity="1"
   objecttolerance="10"
   gridtolerance="10"
   guidetolerance="10"
   inkscape:pageopacity="0"
   inkscape:pageshadow="2"
   inkscape:window-width="1247"
   inkscape:window-height="779"
   id="namedview3943"
   showgrid="false"
   inkscape:zoom="0.93256488"
   inkscape:cx="222.21791"
   inkscape:cy="44.810469"
   inkscape:window-x="520"
   inkscape:window-y="61"
   inkscape:window-maximized="0"
   inkscape:current-layer="Calque_1"
   inkscape:snap-bbox="true"
   inkscape:bbox-paths="true"
   inkscape:bbox-nodes="false"
   inkscape:snap-bbox-edge-midpoints="false"
   showguides="true"
   inkscape:snap-bbox-midpoints="false" />


<circle
   id="path3851"
   cx="132.52025"
   cy="133.50029"
   r="40.883255"
   style="display:none;fill:url(#linearGradient4677);fill-opacity:1;stroke:none;stroke-width:1.13513076;stroke-opacity:1" /><g
   id="g8649"
   transform="translate(0.3173655,1.039094)"><path
     id="path3850"
     d="m 48.050129,21.050902 c 11.117,-6.814 24.092,-11.773 41.287005,-12.512 1.564,0 3.127,0 4.691,0 17.121006,0.71 29.930006,5.729 41.133006,12.355 -1.373,2.005 -3.422,3.89 -5.318,5.787 -1.936,1.937 -3.904,3.936 -5.941,5.63 -8.086,-4.375 -17.143,-7.778 -29.090006,-8.29 -1.93,-0.261 -4.953,-0.261 -6.883005,0 -11.875,0.481 -20.799,3.911 -28.932,8.133 -3.558,-3.791 -7.39,-7.31 -10.947,-11.103 z"
     style="clip-rule:evenodd;fill:#2e3e50;fill-rule:evenodd"
     inkscape:connector-curvature="0" /><path
     style="clip-rule:evenodd;fill:#2e3e50;fill-rule:evenodd"
     d="M 91.84375 128.75391 C 88.208745 132.52091 84.508234 136.22042 80.740234 139.85742 C 76.982234 143.45142 73.404719 147.22364 69.636719 150.80664 C 64.982719 155.69364 60.056344 160.30731 55.402344 165.19531 C 64.841344 169.98731 75.441292 173.62262 89.029297 174.26562 C 89.555297 174.36463 90.48 174.06387 90.75 174.42188 L 94.503906 174.42188 C 94.771906 174.06388 95.697656 174.36462 96.222656 174.26562 C 103.71824 173.9332 110.25849 172.64371 116.22461 170.78125 A 40 40 0 0 1 94 135 A 40 40 0 0 1 94.203125 130.98438 C 93.471123 130.23851 92.72892 129.50273 92 128.75391 L 91.84375 128.75391 z "
     transform="translate(-0.3173655,-1.039094)"
     id="path3852" /><path
     style="clip-rule:evenodd;fill:#36b097;fill-rule:evenodd"
     d="M 43.517578 25.375 C 40.691578 27.499 37.954766 29.719609 35.384766 32.099609 C 34.405766 33.206609 33.366813 34.250516 32.257812 35.228516 C 19.961813 48.790516 10.791281 65.475297 9.7382812 90.279297 L 9.7382812 93.09375 C 10.099281 93.56675 9.7905781 94.707453 9.8925781 95.439453 C 11.349578 119.00646 20.372906 135.00548 32.253906 148.14648 C 33.362906 149.12348 34.401859 150.16544 35.380859 151.27344 C 39.143859 154.75544 43.228078 157.91945 47.580078 160.81445 C 48.713078 160.27945 49.236281 159.13475 50.238281 158.46875 C 50.487281 158.08975 50.798781 157.7773 51.175781 157.5293 C 53.667781 154.9103 56.220844 152.35423 58.839844 149.86523 C 64.352844 144.22223 69.931172 138.64486 75.576172 133.13086 C 75.782172 133.12986 75.718719 132.85636 75.886719 132.81836 C 78.267719 130.20836 81.051187 127.6558 83.867188 124.8418 C 86.172188 122.5358 89.738047 118.49844 91.998047 117.02344 C 93.483257 118.47978 94.952788 119.95142 96.431641 121.41406 A 40 40 0 0 1 106.18555 106.25781 C 102.80682 102.86691 99.428157 99.475658 96.068359 96.066406 C 95.529359 95.661406 95.062156 95.193203 94.660156 94.658203 C 93.631156 93.863203 92.87475 92.793047 91.84375 91.998047 C 91.37075 92.673047 90.674 93.122703 90.125 93.720703 C 84.036995 99.937703 77.886969 106.09078 71.667969 112.17578 C 70.064969 113.54278 68.736812 115.18669 67.132812 116.55469 C 59.612812 124.10069 52.236031 131.78922 44.457031 139.07422 C 44.133031 138.51122 43.527078 138.23097 43.205078 137.66797 C 33.531078 127.16597 26.15825 114.36346 24.90625 95.439453 C 24.64425 93.301453 24.64425 90.072594 24.90625 87.933594 C 26.15825 69.009594 33.531078 56.207078 43.205078 45.705078 C 43.922078 44.859078 44.702781 44.076375 45.550781 43.359375 C 48.203781 40.850375 50.96125 38.445516 54.15625 36.478516 C 54.53925 36.016516 53.62925 35.845766 53.53125 35.384766 C 52.00525 33.989766 50.545391 32.529859 49.150391 31.005859 C 48.406391 30.027859 47.388531 29.324703 46.644531 28.345703 C 45.509531 27.447703 44.652578 26.273 43.517578 25.375 z M 140.32422 25.376953 C 139.29722 26.170953 138.53872 27.239203 137.51172 28.033203 C 136.42772 29.245203 135.27931 30.392609 134.07031 31.474609 C 133.53731 32.245609 132.72441 32.736812 132.19141 33.507812 C 131.34641 34.589813 130.22495 35.397469 129.37695 36.480469 C 132.28495 38.577469 135.11502 40.752078 137.66602 43.205078 C 138.61902 44.026078 139.50422 44.912281 140.32422 45.863281 C 149.95922 56.507281 157.3768 69.370547 158.4668 88.560547 C 158.7288 90.281547 158.7288 93.094406 158.4668 94.816406 C 158.30895 97.595313 158.00454 100.22595 157.59375 102.75195 A 40 40 0 0 1 169.95117 117.53125 C 172.14653 110.82243 173.60789 103.37938 174.10547 94.972656 C 174.20847 94.032656 173.89872 92.681 174.26172 92 L 174.26172 91.375 C 173.89872 90.696 174.20947 89.344297 174.10547 88.404297 C 172.73047 65.173297 164.08444 49.212969 152.52344 36.167969 C 151.18444 34.744969 149.77303 33.391312 148.45703 31.945312 C 145.85303 29.699312 143.22847 27.478953 140.48047 25.376953 L 140.32422 25.376953 z "
     transform="translate(-0.3173655,-1.039094)"
     id="path3876" /></g><circle
   style="opacity:1;fill:url(#linearGradient8690);fill-opacity:1;stroke:none;stroke-width:3.57107544;stroke-miterlimit:4;stroke-dasharray:none;stroke-opacity:1"
   id="use8682"
   cx="134"
   cy="135"
   r="35.710754" /></svg>