<?xml version="1.0" encoding="UTF-8" standalone="no"?>
<svg
   xmlns:i="http://ns.adobe.com/AdobeIllustrator/10.0/"
   xmlns:dc="http://purl.org/dc/elements/1.1/"
   xmlns:cc="http://creativecommons.org/ns#"
   xmlns:rdf="http://www.w3.org/1999/02/22-rdf-syntax-ns#"
   xmlns:svg="http://www.w3.org/2000/svg"
   xmlns="http://www.w3.org/2000/svg"
   xmlns:sodipodi="http://sodipodi.sourceforge.net/DTD/sodipodi-0.dtd"
   xmlns:inkscape="http://www.inkscape.org/namespaces/inkscape"
   version="1.1"
   id="Calque_1"
   x="0px"
   y="0px"
   height="184.252px"
   xml:space="preserve"
   width="184.252"
   sodipodi:docname="watson.svg"
   inkscape:version="0.92.4 (5da689c313, 2019-01-14)"><metadata
   id="metadata3947"><rdf:RDF><cc:Work
       rdf:about=""><dc:format>image/svg+xml</dc:format><dc:type
         rdf:resource="http://purl.org/dc/dcmitype/StillImage" /><dc:title></dc:title></cc:Work></rdf:RDF></metadata><defs
   id="defs3945" /><sodipodi:namedview
   pagecolor="#ffffff"
   bordercolor="#666666"
   borderopacity="1"
   objecttolerance="10"
   gridtolerance="10"
   guidetolerance="10"
   inkscape:pageopacity="0"
   inkscape:pageshadow="2"
   inkscape:window-width="640"
   inkscape:window-height="480"
   id="namedview3943"
   showgrid="false"
   inkscape:zoom="1.3188459"
   inkscape:cx="92.125999"
   inkscape:cy="92.125999"
   inkscape:window-x="389"
   inkscape:window-y="143"
   inkscape:window-maximized="0"
   inkscape:current-layer="Calque_1" />
<switch
   id="switch3940">

	<g
   i:extraneous="self"
   id="g3938">



		<g
   id="g3936">
			<path
   fill-rule="evenodd"
   clip-rule="evenodd"
   fill="#2E3E50"
   d="M47.596,22.36c11.117-6.814,24.092-11.773,41.287-12.512     c1.564,0,3.127,0,4.691,0c17.121,0.71,29.93,5.729,41.133,12.355c-1.373,2.005-3.422,3.89-5.318,5.787     c-1.936,1.937-3.904,3.936-5.941,5.63c-8.086-4.375-17.143-7.778-29.09-8.29c-1.93-0.261-4.953-0.261-6.883,0     c-11.875,0.481-20.799,3.911-28.932,8.133C54.985,29.672,51.153,26.153,47.596,22.36z"
   id="path3850" />

			<path
   clip-rule="evenodd"
   fill="#2E3E50"
   d="M91.073,129.023c0.053,0,0.105,0,0.156,0     c4.834,4.966,9.736,9.867,14.703,14.702c0.299,0.43,0.662,0.795,1.094,1.094c6.867,7.208,14.219,13.933,20.957,21.27     c-9.277,4.384-19.453,7.866-32.531,8.446c-0.525,0.099-1.451-0.201-1.719,0.157c-1.254,0-2.504,0-3.754,0     c-0.27-0.358-1.195-0.058-1.721-0.157c-13.588-0.643-24.188-4.278-33.627-9.07c4.654-4.888,9.58-9.502,14.234-14.389     c3.768-3.583,7.346-7.354,11.104-10.948C83.737,136.491,87.438,132.79,91.073,129.023z"
   fill-rule="evenodd"
   id="path3852" /><path
   fill-rule="evenodd"
   clip-rule="evenodd"
   fill="#71AEA7"
   d="M47.596,22.36c3.557,3.793,7.389,7.312,10.947,11.104     C54.907,29.854,50.709,25.971,47.596,22.36z"
   id="path3854" />
			<path
   fill-rule="evenodd"
   clip-rule="evenodd"
   fill="#DAE9E7"
   d="M123.448,33.622c2.037-1.695,4.006-3.694,5.941-5.63     c1.896-1.897,3.945-3.782,5.318-5.787c0.672,0.375-0.619,1.032-0.939,1.408c-0.373,0.616-1.031,0.949-1.406,1.564     c-1.082,0.846-1.889,1.968-2.973,2.815C127.475,29.83,125.491,32.433,123.448,33.622z"
   id="path3856" />
			<path
   fill-rule="evenodd"
   clip-rule="evenodd"
   fill="#DAE9E7"
   d="M147.688,32.214c1.439,1.324,2.869,2.657,4.066,4.222     C150.415,35.013,149.004,33.66,147.688,32.214z"
   id="path3858" />
			<path
   fill-rule="evenodd"
   clip-rule="evenodd"
   fill="#A4CDC8"
   d="M136.743,28.303c0.844-0.875,1.967-2.304,2.812-2.658     C138.528,26.439,137.77,27.509,136.743,28.303z"
   id="path3860" />
			<path
   fill-rule="evenodd"
   clip-rule="evenodd"
   fill="#DAE9E7"
   d="M133.301,31.745c1.08-1.212,2.227-2.36,3.441-3.441     C135.659,29.516,134.51,30.663,133.301,31.745z"
   id="path3862" />
			<path
   fill-rule="evenodd"
   clip-rule="evenodd"
   fill="#71AEA7"
   d="M128.608,36.749c0.406-0.898,1.889-2.073,2.814-2.972     C130.577,34.859,129.456,35.667,128.608,36.749z"
   id="path3864" />
			<path
   fill-rule="evenodd"
   clip-rule="evenodd"
   fill="#71AEA7"
   d="M136.897,43.474c0.953,0.821,1.838,1.708,2.658,2.659     C138.604,45.311,137.717,44.426,136.897,43.474z"
   id="path3866" />
			<path
   fill-rule="evenodd"
   clip-rule="evenodd"
   fill="#71AEA7"
   d="M124.385,125.426c4.602,4.471,9.137,9.006,13.607,13.606     c0.766-0.173,0.926-0.949,1.562-1.251c-0.477,0.513-0.826,1.154-1.562,1.407C133.547,134.51,128.831,130.104,124.385,125.426z"
   id="path3868" />
			<path
   fill-rule="evenodd"
   clip-rule="evenodd"
   fill="#A4CDC8"
   d="M95.297,96.337c9.029,8.901,17.998,17.867,26.898,26.899     C113.165,114.335,104.198,105.368,95.297,96.337z"
   id="path3870" />
			<path
   fill-rule="evenodd"
   clip-rule="evenodd"
   fill="#DAE9E7"
   d="M91.073,92.269c0.846,0.354,1.971,1.785,2.816,2.66     C92.86,94.134,92.104,93.064,91.073,92.269z"
   id="path3872" />
			<path
   fill-rule="evenodd"
   clip-rule="evenodd"
   fill="#71AEA7"
   d="M70.897,112.445c6.088-6.216,12.24-12.368,18.457-18.455     C83.266,100.207,77.116,106.359,70.897,112.445z"
   id="path3874" />
			<path
   fill-rule="evenodd"
   clip-rule="evenodd"
   fill="#36B097"
   d="M66.362,116.824c1.604-1.368,2.932-3.012,4.535-4.379     c6.219-6.085,12.369-12.238,18.457-18.455c0.549-0.598,1.246-1.046,1.719-1.721c1.031,0.795,1.787,1.865,2.816,2.66     c0.402,0.535,0.869,1.003,1.408,1.408c8.9,9.031,17.867,17.998,26.898,26.899c0.664,0.797,1.514,1.407,2.189,2.19     c4.445,4.679,9.162,9.084,13.607,13.763c0.736-0.253,1.086-0.894,1.562-1.407c9.635-10.645,17.053-23.507,18.143-42.696     c0.262-1.722,0.262-4.535,0-6.256c-1.09-19.19-8.508-32.052-18.143-42.696c-0.82-0.951-1.705-1.838-2.658-2.659     c-2.551-2.453-5.381-4.628-8.289-6.725c0.848-1.083,1.969-1.89,2.814-2.972c0.533-0.771,1.346-1.262,1.879-2.033     c1.209-1.082,2.357-2.229,3.441-3.441c1.027-0.794,1.785-1.864,2.812-2.658c0.053,0,0.105,0,0.156,0     c2.748,2.102,5.373,4.323,7.977,6.569c1.316,1.446,2.727,2.799,4.066,4.222c11.561,13.045,20.207,29.006,21.582,52.237     c0.104,0.94-0.205,2.292,0.158,2.971c0,0.209,0,0.417,0,0.625c-0.363,0.681-0.055,2.032-0.158,2.972     c-1.375,23.231-10.02,39.191-21.582,52.236c-1.34,1.423-2.75,2.776-4.066,4.223c-3.846,3.349-7.771,6.617-12.199,9.384     c-3.322-2.725-6.033-6.06-9.227-8.915c-0.051,0-0.104,0-0.156,0c-0.664-0.795-1.395-1.525-2.189-2.19c0-0.052,0-0.104,0-0.157     c-2.697-2.828-5.461-5.591-8.289-8.289c-1.551-1.315-2.828-2.907-4.381-4.223c-6.605-6.737-13.279-13.41-20.018-20.018     c-2.26,1.475-5.826,5.513-8.131,7.819c-2.816,2.814-5.598,5.367-7.979,7.977c-0.168,0.038-0.105,0.311-0.311,0.312     c-5.645,5.514-11.223,11.092-16.736,16.735c-2.619,2.489-5.172,5.044-7.664,7.663c-0.377,0.248-0.689,0.56-0.938,0.939     c-1.002,0.666-1.525,1.811-2.658,2.346c-4.352-2.895-8.436-6.058-12.199-9.54c-0.979-1.108-2.018-2.151-3.127-3.128     C19.602,135.275,10.579,119.277,9.122,95.71c-0.102-0.732,0.205-1.873-0.156-2.346c0-0.938,0-1.876,0-2.814     c1.053-24.804,10.225-41.49,22.521-55.052c1.109-0.978,2.148-2.021,3.127-3.128c2.57-2.38,5.307-4.601,8.133-6.725     c1.135,0.898,1.992,2.073,3.127,2.971c0.744,0.979,1.76,1.681,2.504,2.659c1.395,1.524,2.855,2.984,4.381,4.379     c0.098,0.461,1.008,0.632,0.625,1.094c-3.195,1.967-5.951,4.372-8.604,6.881c-0.848,0.717-1.629,1.5-2.346,2.346     C32.76,56.477,25.387,69.279,24.135,88.203c-0.262,2.139-0.262,5.369,0,7.507c1.252,18.924,8.625,31.726,18.299,42.228     c0.322,0.563,0.928,0.844,1.252,1.407C51.465,132.06,58.842,124.37,66.362,116.824z"
   id="path3876" />
			<path
   fill-rule="evenodd"
   clip-rule="evenodd"
   fill="#DAE9E7"
   d="M42.434,137.938c0.562,0.322,0.844,0.928,1.406,1.25     c7.6-7.363,14.924-15.001,22.521-22.364c-7.52,7.545-14.896,15.236-22.676,22.521C43.362,138.782,42.756,138.501,42.434,137.938z     "
   id="path3878" />
			<path
   fill-rule="evenodd"
   clip-rule="evenodd"
   fill="#A4CDC8"
   d="M42.434,45.976c0.717-0.846,1.498-1.629,2.346-2.346     C44.063,44.478,43.282,45.26,42.434,45.976z"
   id="path3880" />
			<path
   fill-rule="evenodd"
   clip-rule="evenodd"
   fill="#71AEA7"
   d="M48.377,31.275c1.525,1.395,2.984,2.854,4.381,4.379     C51.233,34.26,49.772,32.8,48.377,31.275z"
   id="path3882" />
			<path
   fill-rule="evenodd"
   clip-rule="evenodd"
   fill="#DAE9E7"
   d="M42.747,25.645c0.949,0.458,2.176,1.992,3.127,2.971     C44.739,27.718,43.881,26.543,42.747,25.645z"
   id="path3884" />
			<path
   fill-rule="evenodd"
   clip-rule="evenodd"
   fill="#A4CDC8"
   d="M31.487,35.498c0.977-1.108,2.02-2.15,3.127-3.128     C33.635,33.477,32.596,34.52,31.487,35.498z"
   id="path3886" />
			<path
   fill-rule="evenodd"
   clip-rule="evenodd"
   fill="#DAE9E7"
   d="M147.688,151.701c1.316-1.447,2.727-2.8,4.066-4.223     C150.557,149.042,149.127,150.376,147.688,151.701z"
   id="path3888" />
			<path
   fill-rule="evenodd"
   clip-rule="evenodd"
   fill="#71AEA7"
   d="M126.262,152.17c3.193,2.854,5.904,6.19,9.227,8.915     C132.375,158.82,129.29,155.125,126.262,152.17z"
   id="path3890" />
			<path
   fill-rule="evenodd"
   clip-rule="evenodd"
   fill="#DAE9E7"
   d="M123.917,149.98c0.795,0.665,1.525,1.395,2.189,2.19     C125.311,151.505,124.581,150.775,123.917,149.98z"
   id="path3892" />
			<path
   fill-rule="evenodd"
   clip-rule="evenodd"
   fill="#71AEA7"
   d="M115.627,141.534c2.828,2.698,5.592,5.461,8.289,8.289     C121.088,147.126,118.325,144.363,115.627,141.534z"
   id="path3894" />
			<path
   fill-rule="evenodd"
   clip-rule="evenodd"
   fill="#DAE9E7"
   d="M91.229,117.294c6.738,6.607,13.412,13.28,20.018,20.018     C104.51,130.704,97.836,124.031,91.229,117.294z"
   id="path3896" />
			<path
   fill-rule="evenodd"
   clip-rule="evenodd"
   fill="#71AEA7"
   d="M75.12,133.09c2.381-2.61,5.162-5.162,7.979-7.977     c2.305-2.307,5.871-6.344,8.131-7.819C85.614,122.312,80.608,127.941,75.12,133.09z"
   id="path3898" />
			<path
   fill-rule="evenodd"
   clip-rule="evenodd"
   fill="#A4CDC8"
   d="M58.073,150.136c5.514-5.643,11.092-11.221,16.736-16.735     C69.295,139.046,63.717,144.624,58.073,150.136z"
   id="path3900" />
			<path
   fill-rule="evenodd"
   clip-rule="evenodd"
   fill="#71AEA7"
   d="M50.409,157.799c2.492-2.619,5.045-5.174,7.664-7.663     C55.584,152.756,53.028,155.311,50.409,157.799z"
   id="path3902" />
			<path
   fill-rule="evenodd"
   clip-rule="evenodd"
   fill="#DAE9E7"
   d="M46.813,161.084c1.133-0.536,1.656-1.68,2.658-2.346     C48.659,159.49,47.754,160.981,46.813,161.084z"
   id="path3904" />
			<path
   fill-rule="evenodd"
   clip-rule="evenodd"
   fill="#A4CDC8"
   d="M31.487,148.416c1.109,0.978,2.148,2.02,3.127,3.128     C33.506,150.566,32.463,149.524,31.487,148.416z"
   id="path3906" />
			<path
   fill-rule="evenodd"
   clip-rule="evenodd"
   fill="#71AEA7"
   d="M107.026,144.819c5.361,5.134,10.615,10.615,15.953,15.952     c1.744,1.745,3.76,3.271,5.004,5.317C121.245,158.751,113.893,152.026,107.026,144.819z"
   id="path3908" />
			<path
   fill-rule="evenodd"
   clip-rule="evenodd"
   fill="#A4CDC8"
   d="M91.229,129.023c4.967,4.835,9.867,9.735,14.703,14.702     C100.965,138.89,96.063,133.989,91.229,129.023z"
   id="path3910" />
			<path
   fill-rule="evenodd"
   clip-rule="evenodd"
   fill="#71AEA7"
   d="M79.969,140.126c3.635-3.766,7.336-7.468,11.104-11.104     C87.438,132.79,83.737,136.491,79.969,140.126z"
   id="path3912" />
			<path
   fill-rule="evenodd"
   clip-rule="evenodd"
   fill="#DAE9E7"
   d="M54.631,165.464c4.211-4.706,9.502-9.684,14.234-14.389     C64.211,155.962,59.286,160.576,54.631,165.464z"
   id="path3914" />
			<path
   fill-rule="evenodd"
   clip-rule="evenodd"
   fill="#A4CDC8"
   d="M8.965,90.55c0,0.938,0,1.877,0,2.814c0,0.209,0,0.417,0,0.626     c-0.053,0-0.104,0-0.156,0c0-1.355,0-2.711,0-4.066C9.042,89.953,8.952,90.302,8.965,90.55z"
   id="path3916" />
			<path
   fill-rule="evenodd"
   clip-rule="evenodd"
   fill="#71AEA7"
   d="M173.495,92.269c0,0.991,0,1.982,0,2.972     c-0.053,0-0.105,0-0.158,0C173.44,94.301,173.131,92.95,173.495,92.269z"
   id="path3918" />
			<path
   fill-rule="evenodd"
   clip-rule="evenodd"
   fill="#71AEA7"
   d="M8.965,93.364c0.361,0.474,0.055,1.614,0.156,2.346     c-0.357-0.268-0.059-1.193-0.156-1.72C8.965,93.782,8.965,93.573,8.965,93.364z"
   id="path3920" />
			<path
   fill-rule="evenodd"
   clip-rule="evenodd"
   fill="#71AEA7"
   d="M88.258,174.534c0.525,0.099,1.451-0.201,1.721,0.157     c-0.574,0-1.148,0-1.721,0C88.258,174.638,88.258,174.586,88.258,174.534z"
   id="path3922" />
			<path
   fill-rule="evenodd"
   clip-rule="evenodd"
   fill="#71AEA7"
   d="M93.733,174.691c0.268-0.358,1.193-0.058,1.719-0.157     c0,0.052,0,0.104,0,0.157C94.879,174.691,94.305,174.691,93.733,174.691z"
   id="path3924" />
			<path
   fill-rule="evenodd"
   clip-rule="evenodd"
   fill="#DAE9E7"
   d="M87.475,25.332c1.93-0.261,4.953-0.261,6.883,0     C92.065,25.332,89.77,25.332,87.475,25.332z"
   id="path3926" />
			<path
   fill-rule="evenodd"
   clip-rule="evenodd"
   fill="#A4CDC8"
   d="M24.135,88.203c0,2.503,0,5.005,0,7.507     C23.874,93.572,23.874,90.342,24.135,88.203z"
   id="path3928" />
			<path
   fill-rule="evenodd"
   clip-rule="evenodd"
   fill="#A4CDC8"
   d="M88.883,9.692c1.564,0,3.127,0,4.691,0c0,0.052,0,0.104,0,0.156     c-1.564,0-3.127,0-4.691,0C88.883,9.796,88.883,9.745,88.883,9.692z"
   id="path3930" />

			<path
   fill-rule="evenodd"
   clip-rule="evenodd"
   fill="#71AEA7"
   d="M173.495,88.673c0,0.991,0,1.98,0,2.971     c-0.363-0.68-0.055-2.031-0.158-2.971C173.389,88.673,173.442,88.673,173.495,88.673z"
   id="path3932" />
		<path
   fill-rule="evenodd"
   clip-rule="evenodd"
   fill="#A4CDC8"
   d="M157.698,88.829c0.262,1.722,0.262,4.535,0,6.256     C157.698,93,157.698,90.914,157.698,88.829z"
   id="path3934" /></g>

	</g>
</switch>

</svg>